# Blender v3.2.2 OBJ File: ''
# www.blender.org
mtllib bars_right.mtl
o right_bars
v 0.017223 -0.381015 -0.006855
v 0.017223 -0.381015 0.897796
v 0.010202 -0.380323 0.897796
v 0.010202 -0.380323 -0.006855
v 0.003449 -0.378275 0.897796
v 0.003449 -0.378275 -0.006855
v -0.002773 -0.374949 0.897796
v -0.002773 -0.374949 -0.006855
v -0.008228 -0.370472 0.897796
v -0.008228 -0.370472 -0.006855
v -0.012704 -0.365018 0.897796
v -0.012704 -0.365018 -0.006855
v -0.016030 -0.358796 0.897796
v -0.016030 -0.358796 -0.006855
v -0.018078 -0.352043 0.897796
v -0.018078 -0.352043 -0.006855
v -0.018770 -0.345022 0.897796
v -0.018770 -0.345022 -0.006855
v -0.018078 -0.338000 0.897796
v -0.018078 -0.338000 -0.006855
v -0.016030 -0.331248 0.897796
v -0.016030 -0.331248 -0.006855
v -0.012704 -0.325025 0.897796
v -0.012704 -0.325025 -0.006855
v -0.008228 -0.319571 0.897796
v -0.008228 -0.319571 -0.006855
v -0.002773 -0.315094 0.897796
v -0.002773 -0.315094 -0.006855
v 0.003449 -0.311768 0.897796
v 0.003449 -0.311768 -0.006855
v 0.010202 -0.309720 0.897796
v 0.010202 -0.309720 -0.006855
v 0.017223 -0.309029 0.897796
v 0.017223 -0.309029 -0.006855
v 0.024245 -0.309720 0.897796
v 0.024245 -0.309720 -0.006855
v 0.030997 -0.311768 0.897796
v 0.030997 -0.311768 -0.006855
v 0.037220 -0.315094 0.897796
v 0.037220 -0.315094 -0.006855
v 0.042674 -0.319571 0.897796
v 0.042674 -0.319571 -0.006855
v 0.047151 -0.325025 0.897796
v 0.047151 -0.325025 -0.006855
v 0.050477 -0.331248 0.897796
v 0.050477 -0.331248 -0.006855
v 0.052525 -0.338000 0.897796
v 0.052525 -0.338000 -0.006855
v 0.053216 -0.345022 0.897796
v 0.053216 -0.345022 -0.006855
v 0.052525 -0.352044 0.897796
v 0.052525 -0.352044 -0.006855
v 0.050477 -0.358796 0.897796
v 0.050477 -0.358796 -0.006855
v 0.047151 -0.365018 0.897796
v 0.047151 -0.365018 -0.006855
v 0.042674 -0.370473 0.897796
v 0.042674 -0.370473 -0.006855
v 0.037220 -0.374949 0.897796
v 0.037220 -0.374949 -0.006855
v 0.030997 -0.378275 0.897796
v 0.030997 -0.378275 -0.006855
v 0.024245 -0.380323 0.897796
v 0.024245 -0.380323 -0.006855
v 0.140242 -0.466056 -0.006855
v 0.140242 -0.466056 0.897796
v 0.133220 -0.465365 0.897796
v 0.133220 -0.465365 -0.006855
v 0.126468 -0.463316 0.897796
v 0.126468 -0.463316 -0.006855
v 0.120245 -0.459990 0.897796
v 0.120245 -0.459990 -0.006855
v 0.114791 -0.455514 0.897796
v 0.114791 -0.455514 -0.006855
v 0.110314 -0.450060 0.897796
v 0.110314 -0.450060 -0.006855
v 0.106988 -0.443837 0.897796
v 0.106988 -0.443837 -0.006855
v 0.104940 -0.437085 0.897796
v 0.104940 -0.437085 -0.006855
v 0.104248 -0.430063 0.897796
v 0.104248 -0.430063 -0.006855
v 0.104940 -0.423041 0.897796
v 0.104940 -0.423041 -0.006855
v 0.106988 -0.416289 0.897796
v 0.106988 -0.416289 -0.006855
v 0.110314 -0.410067 0.897796
v 0.110314 -0.410067 -0.006855
v 0.114791 -0.404612 0.897796
v 0.114791 -0.404612 -0.006855
v 0.120245 -0.400136 0.897796
v 0.120245 -0.400136 -0.006855
v 0.126468 -0.396810 0.897796
v 0.126468 -0.396810 -0.006855
v 0.133220 -0.394762 0.897796
v 0.133220 -0.394762 -0.006855
v 0.140242 -0.394070 0.897796
v 0.140242 -0.394070 -0.006855
v 0.147263 -0.394762 0.897796
v 0.147263 -0.394762 -0.006855
v 0.154015 -0.396810 0.897796
v 0.154015 -0.396810 -0.006855
v 0.160238 -0.400136 0.897796
v 0.160238 -0.400136 -0.006855
v 0.165692 -0.404612 0.897796
v 0.165692 -0.404612 -0.006855
v 0.170169 -0.410067 0.897796
v 0.170169 -0.410067 -0.006855
v 0.173495 -0.416289 0.897796
v 0.173495 -0.416289 -0.006855
v 0.175543 -0.423041 0.897796
v 0.175543 -0.423041 -0.006855
v 0.176235 -0.430063 0.897796
v 0.176235 -0.430063 -0.006855
v 0.175543 -0.437085 0.897796
v 0.175543 -0.437085 -0.006855
v 0.173495 -0.443837 0.897796
v 0.173495 -0.443837 -0.006855
v 0.170169 -0.450060 0.897796
v 0.170169 -0.450060 -0.006855
v 0.165692 -0.455514 0.897796
v 0.165692 -0.455514 -0.006855
v 0.160238 -0.459990 0.897796
v 0.160238 -0.459990 -0.006855
v 0.154015 -0.463317 0.897796
v 0.154015 -0.463317 -0.006855
v 0.147263 -0.465365 0.897796
v 0.147263 -0.465365 -0.006855
vn -0.0981 -0.9952 0.0000
vn -0.2902 -0.9570 0.0000
vn -0.4714 -0.8819 0.0000
vn -0.6344 -0.7730 0.0000
vn -0.7730 -0.6344 0.0000
vn -0.8819 -0.4714 0.0000
vn -0.9570 -0.2902 0.0000
vn -0.9952 -0.0981 0.0000
vn -0.9952 0.0981 -0.0000
vn -0.9569 0.2903 -0.0000
vn -0.8819 0.4714 -0.0000
vn -0.7730 0.6344 -0.0000
vn -0.6344 0.7730 -0.0000
vn -0.4714 0.8819 -0.0000
vn -0.2902 0.9570 0.0000
vn -0.0979 0.9952 0.0000
vn 0.0979 0.9952 -0.0000
vn 0.2903 0.9569 0.0000
vn 0.4714 0.8819 -0.0000
vn 0.6345 0.7729 -0.0000
vn 0.7729 0.6345 -0.0000
vn 0.8819 0.4714 -0.0000
vn 0.9569 0.2903 -0.0000
vn 0.9952 0.0979 -0.0000
vn 0.9952 -0.0979 0.0000
vn 0.9569 -0.2903 0.0000
vn 0.8819 -0.4714 0.0000
vn 0.7730 -0.6344 0.0000
vn 0.6344 -0.7730 0.0000
vn 0.4714 -0.8819 0.0000
vn 0.0000 0.0000 1.0000
vn -0.0001 0.0000 1.0000
vn 0.0001 0.0000 1.0000
vn 0.2903 -0.9569 0.0000
vn 0.0981 -0.9952 0.0000
vn -0.0000 -0.0000 -1.0000
vn -0.0979 -0.9952 0.0000
vn -0.2904 -0.9569 0.0000
vn -0.7729 -0.6345 0.0000
vn -0.9569 -0.2903 0.0000
vn -0.2903 0.9569 0.0000
vn -0.0981 0.9952 -0.0000
vn 0.0981 0.9952 -0.0000
vn 0.6344 0.7730 -0.0000
vn 0.7730 0.6344 -0.0000
vn 0.9952 0.0981 0.0000
vn 0.9952 -0.0981 0.0000
vn 0.7729 -0.6345 0.0000
vn 0.4715 -0.8819 0.0000
vn 0.0979 -0.9952 0.0000
usemtl None
s 1
f 1//1 2//1 3//1
f 1//1 3//1 4//1
f 4//2 3//2 5//2
f 4//2 5//2 6//2
f 6//3 5//3 7//3
f 6//3 7//3 8//3
f 8//4 7//4 9//4
f 8//4 9//4 10//4
f 10//5 9//5 11//5
f 10//5 11//5 12//5
f 12//6 11//6 13//6
f 12//6 13//6 14//6
f 14//7 13//7 15//7
f 14//7 15//7 16//7
f 16//8 15//8 17//8
f 16//8 17//8 18//8
f 18//9 17//9 19//9
f 18//9 19//9 20//9
f 20//10 19//10 21//10
f 20//10 21//10 22//10
f 22//11 21//11 23//11
f 22//11 23//11 24//11
f 24//12 23//12 25//12
f 24//12 25//12 26//12
f 26//13 25//13 27//13
f 26//13 27//13 28//13
f 28//14 27//14 29//14
f 28//14 29//14 30//14
f 30//15 29//15 31//15
f 30//15 31//15 32//15
f 32//16 31//16 33//16
f 32//16 33//16 34//16
f 34//17 33//17 35//17
f 34//17 35//17 36//17
f 36//18 35//18 37//18
f 36//18 37//18 38//18
f 38//19 37//19 39//19
f 38//19 39//19 40//19
f 40//20 39//20 41//20
f 40//20 41//20 42//20
f 42//21 41//21 43//21
f 42//21 43//21 44//21
f 44//22 43//22 45//22
f 44//22 45//22 46//22
f 46//23 45//23 47//23
f 46//23 47//23 48//23
f 48//24 47//24 49//24
f 48//24 49//24 50//24
f 50//25 49//25 51//25
f 50//25 51//25 52//25
f 52//26 51//26 53//26
f 52//26 53//26 54//26
f 54//27 53//27 55//27
f 54//27 55//27 56//27
f 56//28 55//28 57//28
f 56//28 57//28 58//28
f 58//29 57//29 59//29
f 58//29 59//29 60//29
f 60//30 59//30 61//30
f 60//30 61//30 62//30
f 5//31 3//31 2//31
f 2//31 63//31 61//31
f 61//31 59//32 57//31
f 57//31 55//33 53//31
f 53//31 51//32 49//31
f 49//31 47//32 45//31
f 45//31 43//33 41//31
f 41//31 39//31 37//31
f 37//31 35//31 33//31
f 33//31 31//31 29//31
f 29//31 27//31 25//31
f 25//31 23//32 21//31
f 21//31 19//33 17//31
f 17//31 15//31 13//31
f 13//31 11//32 9//31
f 9//31 7//31 5//31
f 5//31 2//31 61//31
f 61//31 57//31 53//31
f 53//31 49//31 45//31
f 45//31 41//31 37//31
f 37//31 33//31 29//31
f 29//31 25//31 21//31
f 21//31 17//31 13//31
f 13//31 9//31 5//31
f 5//31 61//31 53//31
f 53//31 45//31 37//31
f 37//31 29//31 21//31
f 21//31 13//31 5//31
f 5//31 53//31 37//31
f 37//31 21//31 5//31
f 62//34 61//34 63//34
f 62//34 63//34 64//34
f 64//35 63//35 2//35
f 64//35 2//35 1//35
f 64//36 1//36 4//36
f 4//36 6//36 8//36
f 8//36 10//36 12//36
f 12//36 14//36 16//36
f 16//36 18//36 20//36
f 20//36 22//36 24//36
f 24//36 26//36 28//36
f 28//36 30//36 32//36
f 32//36 34//36 36//36
f 36//36 38//36 40//36
f 40//36 42//36 44//36
f 44//36 46//36 48//36
f 48//36 50//36 52//36
f 52//36 54//36 56//36
f 56//36 58//36 60//36
f 60//36 62//36 64//36
f 64//36 4//36 8//36
f 8//36 12//36 16//36
f 16//36 20//36 24//36
f 24//36 28//36 32//36
f 32//36 36//36 40//36
f 40//36 44//36 48//36
f 48//36 52//36 56//36
f 56//36 60//36 64//36
f 64//36 8//36 16//36
f 16//36 24//36 32//36
f 32//36 40//36 48//36
f 48//36 56//36 64//36
f 64//36 16//36 32//36
f 32//36 48//36 64//36
f 65//37 66//37 67//37
f 65//37 67//37 68//37
f 68//38 67//38 69//38
f 68//38 69//38 70//38
f 70//3 69//3 71//3
f 70//3 71//3 72//3
f 72//4 71//4 73//4
f 72//4 73//4 74//4
f 74//39 73//39 75//39
f 74//39 75//39 76//39
f 76//6 75//6 77//6
f 76//6 77//6 78//6
f 78//40 77//40 79//40
f 78//40 79//40 80//40
f 80//8 79//8 81//8
f 80//8 81//8 82//8
f 82//9 81//9 83//9
f 82//9 83//9 84//9
f 84//10 83//10 85//10
f 84//10 85//10 86//10
f 86//11 85//11 87//11
f 86//11 87//11 88//11
f 88//12 87//12 89//12
f 88//12 89//12 90//12
f 90//13 89//13 91//13
f 90//13 91//13 92//13
f 92//14 91//14 93//14
f 92//14 93//14 94//14
f 94//41 93//41 95//41
f 94//41 95//41 96//41
f 96//42 95//42 97//42
f 96//42 97//42 98//42
f 98//43 97//43 99//43
f 98//43 99//43 100//43
f 100//18 99//18 101//18
f 100//18 101//18 102//18
f 102//19 101//19 103//19
f 102//19 103//19 104//19
f 104//44 103//44 105//44
f 104//44 105//44 106//44
f 106//45 105//45 107//45
f 106//45 107//45 108//45
f 108//22 107//22 109//22
f 108//22 109//22 110//22
f 110//23 109//23 111//23
f 110//23 111//23 112//23
f 112//46 111//46 113//46
f 112//46 113//46 114//46
f 114//47 113//47 115//47
f 114//47 115//47 116//47
f 116//26 115//26 117//26
f 116//26 117//26 118//26
f 118//27 117//27 119//27
f 118//27 119//27 120//27
f 120//48 119//48 121//48
f 120//48 121//48 122//48
f 122//29 121//29 123//29
f 122//29 123//29 124//29
f 124//49 123//49 125//49
f 124//49 125//49 126//49
f 69//31 67//31 66//31
f 66//31 127//31 125//31
f 125//31 123//33 121//31
f 121//31 119//32 117//31
f 117//31 115//31 113//31
f 113//31 111//32 109//31
f 109//31 107//33 105//31
f 105//31 103//32 101//31
f 101//31 99//31 97//31
f 97//31 95//31 93//31
f 93//31 91//33 89//31
f 89//31 87//32 85//31
f 85//31 83//33 81//31
f 81//31 79//31 77//31
f 77//31 75//33 73//31
f 73//31 71//31 69//31
f 69//31 66//31 125//31
f 125//31 121//31 117//31
f 117//31 113//31 109//31
f 109//31 105//31 101//31
f 101//31 97//31 93//31
f 93//31 89//31 85//31
f 85//31 81//31 77//31
f 77//31 73//31 69//31
f 69//31 125//31 117//31
f 117//31 109//31 101//31
f 101//31 93//31 85//31
f 85//31 77//31 69//31
f 69//31 117//31 101//31
f 101//31 85//31 69//31
f 126//34 125//34 127//34
f 126//34 127//34 128//34
f 128//50 127//50 66//50
f 128//50 66//50 65//50
f 128//36 65//36 68//36
f 68//36 70//36 72//36
f 72//36 74//36 76//36
f 76//36 78//36 80//36
f 80//36 82//36 84//36
f 84//36 86//36 88//36
f 88//36 90//36 92//36
f 92//36 94//36 96//36
f 96//36 98//36 100//36
f 100//36 102//36 104//36
f 104//36 106//36 108//36
f 108//36 110//36 112//36
f 112//36 114//36 116//36
f 116//36 118//36 120//36
f 120//36 122//36 124//36
f 124//36 126//36 128//36
f 128//36 68//36 72//36
f 72//36 76//36 80//36
f 80//36 84//36 88//36
f 88//36 92//36 96//36
f 96//36 100//36 104//36
f 104//36 108//36 112//36
f 112//36 116//36 120//36
f 120//36 124//36 128//36
f 128//36 72//36 80//36
f 80//36 88//36 96//36
f 96//36 104//36 112//36
f 112//36 120//36 128//36
f 128//36 80//36 96//36
f 96//36 112//36 128//36
